<?xml version="1.0" standalone="no"?>
<!DOCTYPE svg PUBLIC "-//W3C//DTD SVG 20010904//EN"
 "http://www.w3.org/TR/2001/REC-SVG-20010904/DTD/svg10.dtd">
<svg version="1.0" xmlns="http://www.w3.org/2000/svg"
 width="500.000000pt" height="500.000000pt" viewBox="0 0 500.000000 500.000000"
 preserveAspectRatio="xMidYMid meet">

<g transform="translate(0.000000,500.000000) scale(0.100000,-0.100000)"
fill="#000000" stroke="none">
<path d="M3510 4110 c-106 -36 -158 -37 -246 -4 -81 30 -130 26 -176 -15 -24
-22 -32 -38 -35 -77 -5 -44 -2 -54 22 -82 41 -49 63 -58 88 -34 12 11 34 27
48 36 26 16 29 16 82 -10 l54 -27 -15 -39 c-14 -36 -14 -40 5 -66 11 -16 39
-33 67 -42 l48 -15 -6 -50 c-3 -27 -6 -75 -6 -106 l0 -56 -112 -7 c-112 -7
-217 -25 -272 -46 l-29 -10 5 -79 c6 -103 42 -181 95 -206 78 -37 220 7 321
101 l53 49 48 170 c53 190 57 195 142 195 56 0 86 -27 91 -84 l3 -38 46 41
c26 22 52 54 59 71 18 42 7 113 -23 159 -22 33 -24 44 -17 77 13 55 -3 110
-42 151 -74 78 -159 91 -298 43z m-270 -701 c0 -24 -22 -49 -44 -49 -28 0 -66
37 -45 44 49 16 89 19 89 5z"/>
<path d="M1944 3867 c-5 -15 64 -768 72 -776 2 -2 15 1 28 7 21 9 24 16 20 44
-3 18 -25 188 -49 377 -41 321 -55 389 -71 348z"/>
<path d="M3160 3757 c0 -8 18 -22 40 -32 32 -15 43 -16 53 -6 9 10 7 17 -12
32 -27 22 -81 26 -81 6z"/>
<path d="M1310 3756 c0 -3 9 -10 20 -16 11 -6 20 -8 20 -6 0 3 -9 10 -20 16
-11 6 -20 8 -20 6z"/>
<path d="M1090 3585 c-41 -41 -72 -75 -69 -75 2 0 38 34 79 75 41 41 72 75 69
75 -2 0 -38 -34 -79 -75z"/>
<path d="M3126 3618 c-21 -30 -21 -98 -1 -98 22 0 49 62 41 94 -8 32 -20 33
-40 4z"/>
<path d="M3647 3453 c-5 -9 11 -58 17 -52 2 2 6 16 10 32 5 20 3 27 -8 27 -8
0 -17 -3 -19 -7z"/>
<path d="M1012 3200 c0 -14 2 -19 5 -12 2 6 2 18 0 25 -3 6 -5 1 -5 -13z"/>
<path d="M1078 3193 c7 -3 16 -2 19 1 4 3 -2 6 -13 5 -11 0 -14 -3 -6 -6z"/>
<path d="M2062 2881 l-23 -31 16 -147 c15 -142 21 -162 52 -163 26 0 30 35 17
138 -7 57 -16 108 -20 114 -4 6 -10 35 -13 65 l-6 55 -23 -31z"/>
<path d="M1628 2285 c-61 -20 -134 -92 -211 -207 -86 -129 -163 -188 -246
-188 -12 0 -21 -6 -21 -15 0 -20 59 -20 106 0 63 26 143 109 209 215 69 113
155 173 245 173 101 0 157 -40 252 -181 102 -151 200 -228 281 -220 50 5 38
20 -24 33 -89 17 -117 44 -251 235 -25 36 -59 77 -74 92 -72 66 -177 91 -266
63z"/>
<path d="M3867 1649 c-64 -22 -232 -62 -372 -91 -252 -51 -254 -51 -264 -80
l-10 -28 102 0 102 -1 -53 -25 c-164 -80 -169 -311 -8 -397 41 -22 46 -22 594
-25 l552 -3 0 31 0 30 -492 0 c-474 0 -494 1 -526 20 -50 31 -72 75 -72 145 0
70 22 114 72 145 32 19 52 20 526 20 l492 0 0 24 c0 23 -3 24 -107 31 -59 4
-142 5 -185 2 l-78 -6 -35 77 c-40 87 -95 172 -110 171 -5 0 -63 -19 -128 -40z"/>
<path d="M2716 1425 c-24 -13 -148 -15 -879 -17 l-850 -3 -18 -50 c-22 -63
-23 -114 -3 -143 l15 -22 809 0 809 0 11 -41 c23 -86 86 -135 186 -144 l59 -5
-40 18 c-92 44 -139 121 -133 221 5 79 39 138 102 176 l41 25 -40 0 c-22 0
-53 -7 -69 -15z m-1576 -126 c0 -10 -84 -58 -92 -52 -9 5 -11 97 -2 105 6 7
93 -43 94 -53z m1104 19 c22 -35 -27 -74 -59 -48 -20 17 -19 47 3 59 23 14 42
10 56 -11z m364 -20 c-3 -23 -6 -23 -165 -26 l-163 -2 0 25 0 25 166 0 165 0
-3 -22z"/>
<path d="M2900 1408 c-76 -47 -103 -99 -98 -194 4 -87 34 -139 105 -180 43
-26 57 -28 167 -31 l121 -4 -40 21 c-88 45 -134 117 -135 208 0 76 35 139 104
186 l39 26 -105 0 c-100 0 -106 -1 -158 -32z"/>
</g>
</svg>
